<svg xmlns="http://www.w3.org/2000/svg" xmlns:xlink="http://www.w3.org/1999/xlink" width="436" zoomAndPan="magnify" viewBox="0 0 327 101.249998" height="135" preserveAspectRatio="xMidYMid meet" version="1.0"><defs><g/><clipPath id="5e2a437103"><path d="M 47.894531 0.511719 L 78.867188 0.511719 L 78.867188 31.488281 L 47.894531 31.488281 Z M 47.894531 0.511719 " clip-rule="nonzero"/></clipPath><clipPath id="f801f763ee"><path d="M 63.378906 0.511719 C 54.828125 0.511719 47.894531 7.445312 47.894531 16 C 47.894531 24.554688 54.828125 31.488281 63.378906 31.488281 C 71.933594 31.488281 78.867188 24.554688 78.867188 16 C 78.867188 7.445312 71.933594 0.511719 63.378906 0.511719 " clip-rule="nonzero"/></clipPath><clipPath id="f7bc14ef1b"><path d="M 47.894531 69.355469 L 78.867188 69.355469 L 78.867188 100.328125 L 47.894531 100.328125 Z M 47.894531 69.355469 " clip-rule="nonzero"/></clipPath><clipPath id="38d5baebbf"><path d="M 63.378906 69.355469 C 54.828125 69.355469 47.894531 76.289062 47.894531 84.84375 C 47.894531 93.394531 54.828125 100.328125 63.378906 100.328125 C 71.933594 100.328125 78.867188 93.394531 78.867188 84.84375 C 78.867188 76.289062 71.933594 69.355469 63.378906 69.355469 " clip-rule="nonzero"/></clipPath><clipPath id="87ad3d0b64"><path d="M 22.695312 55.90625 L 41.261719 55.90625 L 41.261719 74.472656 L 22.695312 74.472656 Z M 22.695312 55.90625 " clip-rule="nonzero"/></clipPath><clipPath id="59376b118e"><path d="M 31.976562 55.90625 C 26.851562 55.90625 22.695312 60.0625 22.695312 65.191406 C 22.695312 70.316406 26.851562 74.472656 31.976562 74.472656 C 37.105469 74.472656 41.261719 70.316406 41.261719 65.191406 C 41.261719 60.0625 37.105469 55.90625 31.976562 55.90625 " clip-rule="nonzero"/></clipPath><clipPath id="1b24f6a168"><path d="M 1.3125 45.507812 L 12.3125 45.507812 L 12.3125 56.503906 L 1.3125 56.503906 Z M 1.3125 45.507812 " clip-rule="nonzero"/></clipPath><clipPath id="0580a756ff"><path d="M 6.8125 45.507812 C 3.777344 45.507812 1.3125 47.96875 1.3125 51.003906 C 1.3125 54.042969 3.777344 56.503906 6.8125 56.503906 C 9.851562 56.503906 12.3125 54.042969 12.3125 51.003906 C 12.3125 47.96875 9.851562 45.507812 6.8125 45.507812 " clip-rule="nonzero"/></clipPath><clipPath id="309fdb8c37"><path d="M 22.695312 26.304688 L 41.261719 26.304688 L 41.261719 44.871094 L 22.695312 44.871094 Z M 22.695312 26.304688 " clip-rule="nonzero"/></clipPath><clipPath id="97320ee65c"><path d="M 31.976562 26.304688 C 26.851562 26.304688 22.695312 30.460938 22.695312 35.585938 C 22.695312 40.714844 26.851562 44.871094 31.976562 44.871094 C 37.105469 44.871094 41.261719 40.714844 41.261719 35.585938 C 41.261719 30.460938 37.105469 26.304688 31.976562 26.304688 " clip-rule="nonzero"/></clipPath></defs><g clip-path="url(#5e2a437103)"><g clip-path="url(#f801f763ee)"><path fill="#ffffff" d="M 47.894531 0.511719 L 78.867188 0.511719 L 78.867188 31.488281 L 47.894531 31.488281 Z M 47.894531 0.511719 " fill-opacity="1" fill-rule="nonzero"/></g></g><g clip-path="url(#f7bc14ef1b)"><g clip-path="url(#38d5baebbf)"><path fill="#ffffff" d="M 47.894531 69.355469 L 78.867188 69.355469 L 78.867188 100.328125 L 47.894531 100.328125 Z M 47.894531 69.355469 " fill-opacity="1" fill-rule="nonzero"/></g></g><g clip-path="url(#87ad3d0b64)"><g clip-path="url(#59376b118e)"><path fill="#e5d7f6" d="M 22.695312 55.90625 L 41.261719 55.90625 L 41.261719 74.472656 L 22.695312 74.472656 Z M 22.695312 55.90625 " fill-opacity="1" fill-rule="nonzero"/></g></g><g clip-path="url(#1b24f6a168)"><g clip-path="url(#0580a756ff)"><path fill="#ffff72" d="M 1.3125 45.507812 L 12.3125 45.507812 L 12.3125 56.503906 L 1.3125 56.503906 Z M 1.3125 45.507812 " fill-opacity="1" fill-rule="nonzero"/></g></g><g clip-path="url(#309fdb8c37)"><g clip-path="url(#97320ee65c)"><path fill="#e5d7f6" d="M 22.695312 26.304688 L 41.261719 26.304688 L 41.261719 44.871094 L 22.695312 44.871094 Z M 22.695312 26.304688 " fill-opacity="1" fill-rule="nonzero"/></g></g><g fill="#fefcfd" fill-opacity="1"><g transform="translate(98.790703, 67.172346)"><g><path d="M 36.1875 -28.734375 L 22.515625 -15.015625 L 37.53125 0 L 24.765625 0 L 13.28125 -11.484375 L 13.28125 0 L 3.359375 0 L 3.359375 -48.171875 L 13.28125 -48.171875 L 13.28125 -18.703125 L 23.296875 -28.734375 Z M 36.1875 -28.734375 "/></g></g></g><g fill="#fefcfd" fill-opacity="1"><g transform="translate(132.172993, 67.172346)"><g><path d="M 5.3125 -3.546875 C 2.625 -6.484375 1.28125 -10.078125 1.28125 -14.328125 C 1.28125 -18.585938 2.625 -22.191406 5.3125 -25.140625 C 8.007812 -28.097656 11.429688 -29.578125 15.578125 -29.578125 C 19.378906 -29.578125 22.515625 -28.378906 24.984375 -25.984375 L 24.984375 -28.734375 L 34.890625 -28.734375 L 34.890625 0 L 25.09375 0 L 25.09375 -3.25 L 24.984375 -3.25 C 22.515625 -0.519531 19.378906 0.84375 15.578125 0.84375 C 11.429688 0.84375 8.007812 -0.617188 5.3125 -3.546875 Z M 13.75 -19.21875 C 12.457031 -17.945312 11.8125 -16.320312 11.8125 -14.34375 C 11.8125 -12.363281 12.425781 -10.75 13.65625 -9.5 C 14.894531 -8.25 16.523438 -7.625 18.546875 -7.625 C 20.484375 -7.625 22.078125 -8.253906 23.328125 -9.515625 C 24.578125 -10.785156 25.203125 -12.394531 25.203125 -14.34375 C 25.203125 -16.320312 24.554688 -17.945312 23.265625 -19.21875 C 21.984375 -20.488281 20.410156 -21.125 18.546875 -21.125 C 16.640625 -21.125 15.039062 -20.488281 13.75 -19.21875 Z M 13.75 -19.21875 "/></g></g></g><g fill="#fefcfd" fill-opacity="1"><g transform="translate(167.627688, 67.172346)"><g><path d="M 36.1875 -28.734375 L 22.515625 -15.015625 L 37.53125 0 L 24.765625 0 L 13.28125 -11.484375 L 13.28125 0 L 3.359375 0 L 3.359375 -48.171875 L 13.28125 -48.171875 L 13.28125 -18.703125 L 23.296875 -28.734375 Z M 36.1875 -28.734375 "/></g></g></g><g fill="#fefcfd" fill-opacity="1"><g transform="translate(201.009973, 67.172346)"><g><path d="M 32.4375 -13 L 11.59375 -13 C 11.59375 -10.976562 12.242188 -9.484375 13.546875 -8.515625 C 14.859375 -7.546875 16.28125 -7.0625 17.8125 -7.0625 C 19.414062 -7.0625 20.679688 -7.273438 21.609375 -7.703125 C 22.546875 -8.128906 23.613281 -8.976562 24.8125 -10.25 L 31.984375 -6.671875 C 28.992188 -1.660156 24.023438 0.84375 17.078125 0.84375 C 12.753906 0.84375 9.039062 -0.640625 5.9375 -3.609375 C 2.832031 -6.578125 1.28125 -10.148438 1.28125 -14.328125 C 1.28125 -18.515625 2.832031 -22.101562 5.9375 -25.09375 C 9.039062 -28.082031 12.753906 -29.578125 17.078125 -29.578125 C 21.640625 -29.578125 25.347656 -28.257812 28.203125 -25.625 C 31.054688 -22.988281 32.484375 -19.226562 32.484375 -14.34375 C 32.484375 -13.664062 32.46875 -13.21875 32.4375 -13 Z M 11.875 -18.484375 L 22.796875 -18.484375 C 22.578125 -19.972656 21.988281 -21.117188 21.03125 -21.921875 C 20.082031 -22.734375 18.859375 -23.140625 17.359375 -23.140625 C 15.722656 -23.140625 14.414062 -22.707031 13.4375 -21.84375 C 12.46875 -20.988281 11.945312 -19.867188 11.875 -18.484375 Z M 11.875 -18.484375 "/></g></g></g><g fill="#fefcfd" fill-opacity="1"><g transform="translate(231.98379, 67.172346)"><g><path d="M 3.359375 0 L 3.359375 -28.734375 L 13.28125 -28.734375 L 13.28125 -24.59375 L 13.390625 -24.59375 C 13.460938 -24.738281 13.582031 -24.921875 13.75 -25.140625 C 13.914062 -25.367188 14.28125 -25.765625 14.84375 -26.328125 C 15.40625 -26.890625 16.003906 -27.394531 16.640625 -27.84375 C 17.273438 -28.289062 18.09375 -28.691406 19.09375 -29.046875 C 20.101562 -29.398438 21.132812 -29.578125 22.1875 -29.578125 C 23.269531 -29.578125 24.332031 -29.425781 25.375 -29.125 C 26.414062 -28.832031 27.179688 -28.535156 27.671875 -28.234375 L 28.453125 -27.78125 L 24.3125 -19.375 C 23.082031 -20.425781 21.363281 -20.953125 19.15625 -20.953125 C 17.957031 -20.953125 16.925781 -20.6875 16.0625 -20.15625 C 15.207031 -19.632812 14.601562 -19 14.25 -18.25 C 13.894531 -17.507812 13.644531 -16.878906 13.5 -16.359375 C 13.351562 -15.835938 13.28125 -15.425781 13.28125 -15.125 L 13.28125 0 Z M 3.359375 0 "/></g></g></g><g fill="#fefcfd" fill-opacity="1"><g transform="translate(257.076473, 67.172346)"><g><path d="M 32.4375 -13 L 11.59375 -13 C 11.59375 -10.976562 12.242188 -9.484375 13.546875 -8.515625 C 14.859375 -7.546875 16.28125 -7.0625 17.8125 -7.0625 C 19.414062 -7.0625 20.679688 -7.273438 21.609375 -7.703125 C 22.546875 -8.128906 23.613281 -8.976562 24.8125 -10.25 L 31.984375 -6.671875 C 28.992188 -1.660156 24.023438 0.84375 17.078125 0.84375 C 12.753906 0.84375 9.039062 -0.640625 5.9375 -3.609375 C 2.832031 -6.578125 1.28125 -10.148438 1.28125 -14.328125 C 1.28125 -18.515625 2.832031 -22.101562 5.9375 -25.09375 C 9.039062 -28.082031 12.753906 -29.578125 17.078125 -29.578125 C 21.640625 -29.578125 25.347656 -28.257812 28.203125 -25.625 C 31.054688 -22.988281 32.484375 -19.226562 32.484375 -14.34375 C 32.484375 -13.664062 32.46875 -13.21875 32.4375 -13 Z M 11.875 -18.484375 L 22.796875 -18.484375 C 22.578125 -19.972656 21.988281 -21.117188 21.03125 -21.921875 C 20.082031 -22.734375 18.859375 -23.140625 17.359375 -23.140625 C 15.722656 -23.140625 14.414062 -22.707031 13.4375 -21.84375 C 12.46875 -20.988281 11.945312 -19.867188 11.875 -18.484375 Z M 11.875 -18.484375 "/></g></g></g><g fill="#fefcfd" fill-opacity="1"><g transform="translate(288.050291, 67.172346)"><g><path d="M 3.359375 0 L 3.359375 -28.734375 L 13.28125 -28.734375 L 13.28125 -24.59375 L 13.390625 -24.59375 C 13.460938 -24.738281 13.582031 -24.921875 13.75 -25.140625 C 13.914062 -25.367188 14.28125 -25.765625 14.84375 -26.328125 C 15.40625 -26.890625 16.003906 -27.394531 16.640625 -27.84375 C 17.273438 -28.289062 18.09375 -28.691406 19.09375 -29.046875 C 20.101562 -29.398438 21.132812 -29.578125 22.1875 -29.578125 C 23.269531 -29.578125 24.332031 -29.425781 25.375 -29.125 C 26.414062 -28.832031 27.179688 -28.535156 27.671875 -28.234375 L 28.453125 -27.78125 L 24.3125 -19.375 C 23.082031 -20.425781 21.363281 -20.953125 19.15625 -20.953125 C 17.957031 -20.953125 16.925781 -20.6875 16.0625 -20.15625 C 15.207031 -19.632812 14.601562 -19 14.25 -18.25 C 13.894531 -17.507812 13.644531 -16.878906 13.5 -16.359375 C 13.351562 -15.835938 13.28125 -15.425781 13.28125 -15.125 L 13.28125 0 Z M 3.359375 0 "/></g></g></g></svg>